<svg version="1" xmlns="http://www.w3.org/2000/svg" width="1500" height="1500" viewBox="0 0 1125.000000 1125.000000"><path d="M0 562.5V1125h1125V0H0v562.5zm391.7-364c17.6 2.4 28.9 5 48.3 11.5 36.9 12.3 71.7 28.9 142 67.8 12.4 6.8 24.2 13.1 26.4 13.8 5.5 2 18.2 1.7 29.8-.6 12.3-2.5 36.6-10.7 69-23.4 31.4-12.2 44.5-16.7 60.5-20.7 10.9-2.8 14.6-3.3 24.8-3.4 11.7 0 12.2.1 19 3.4 19.2 9.4 31.9 31.7 36.7 64.8 1.9 12.9 1.6 51.3-.6 69.8-3.7 31.8-10.9 67.2-20.2 99.6-4.9 17.1-5.6 20.8-6.1 31.2-1.2 24.3 4 45.9 24 99.7 13.1 35.6 16.7 48.8 16.7 62.3 0 10.4-1.4 15.4-5.4 19.2-4.5 4.2-12.8 6.8-38.6 12-33.1 6.6-46.2 11.4-56.8 21-9.1 8.2-12.4 14.5-15.1 29-1.5 7.8-52.2 96.4-72.8 127.2-34.2 51.1-64.1 76.5-95.6 81.4-17.7 2.8-38.5-3.1-57.7-16.1-31.6-21.5-68.1-67.5-97.2-122.5-10.5-19.7-31.8-63.9-31.8-65.8-.1-11.3-20.8-36.2-53.5-64.4-7.7-6.7-19.8-17.1-27-23.3-18.5-16-37.4-34.9-41.4-41.5-6.3-10.4-7.6-20.5-4.1-31.8 2.9-9.3 8.2-16.6 24.5-33.7 7.9-8.3 16.2-17.8 18.4-21.1 10.8-16.1 11.7-31.9 2.9-51.4-6-13.4-8.8-25.5-8.8-38.4 0-19.5 4.9-32.1 25.7-66.7 12.9-21.3 19.3-33.3 19.3-36.1 0-3.4-5.7-13.8-11.7-21.4-3.3-4.1-15.1-17-26.3-28.5-31.6-32.7-43-47.4-43-55.3 0-5.5 23.5-24.6 42-34 25.9-13.2 52.8-17.6 83.7-13.6z"/><path d="M649 450.6c-9.5 1.9-19.6 6.7-29.1 14-8.8 6.8-19.8 18.3-22.7 23.8-5 9.9-4.1 28.9 2.8 56.3 4.6 18.4 10.1 26.8 20.4 31.5 4.8 2.2 6.3 2.3 24.6 2.2 27.8-.1 47.5-3.8 65.5-12.3 17-8.1 20.2-12.3 19.1-25.6-.5-7.6-10.4-58-12.7-65.5-2.1-6.7-5.7-11-11.4-13.6-14.8-6.8-46.1-12.8-56.5-10.8zM462.5 452.6c-10.6 2.1-14.7 3.1-26 6.6-13.4 4.1-18.5 6.9-20.9 11.6-1.7 3.5-7 25.5-9.5 40.2-3.2 18.4-4.4 32.4-3.1 38.5 3 14.3 17.8 21.4 56.2 27 25.2 3.6 47.4 5.1 54.2 3.6 6.6-1.5 10.9-5.4 13.1-12 1.9-5.9 7.9-38.5 9.5-52 2.3-19 .4-24.7-13.2-38.7-15.1-15.6-24.1-21.6-36.6-24.3-5-1-19.3-1.3-23.7-.5zM563.8 614.9c-10.7 3.5-19.2 10.4-25.9 20.9-3.6 5.7-10.2 25.6-12.4 37.7-5.5 29.5 5 43.4 27.7 36.5 24.5-7.3 50-30.1 56.9-50.9 2.8-8.2 2.3-18.5-1.1-25-8.4-16.5-28.1-24.9-45.2-19.2zM520.5 787.9c-15.9 2.6-21.6 6-25.8 15.1-3.2 6.8-3.1 23.8.1 29.7 4.5 8.6 14 12.3 46.2 17.8 28.2 4.8 46.6 6.7 66 6.9 19.7.1 24.8-1.1 31.5-7.9 5.6-5.5 8-12.5 8-23 0-6.9-.4-8.9-3-14-6.3-12.6-17.8-16.9-60.5-22.6-16.9-2.2-53.9-3.4-62.5-2z"/></svg>